<svg xmlns="http://www.w3.org/2000/svg" viewBox="0 0 600 375" role="img" aria-labelledby="t"><title id="t">Degreasing</title><defs><linearGradient id="bg" x1="0" y1="0" x2="0" y2="1"><stop offset="0" stop-color="#d8e4df"/><stop offset="1" stop-color="#b9cdc4"/></linearGradient></defs><rect width="600" height="375" fill="url(#bg)"/><g transform="translate(190 60)"><rect x="40" y="60" width="120" height="170" rx="10" fill="#0d4a3a"/><rect x="40" y="60" width="120" height="22" fill="#083024"/><rect x="80" y="20" width="40" height="50" rx="6" fill="#083024"/><rect x="120" y="0" width="60" height="14" rx="4" fill="#0d4a3a"/><rect x="55" y="100" width="90" height="40" fill="#f4a261"/></g><g fill="#0d4a3a"><path d="M120 110 l8 -28 l8 28 l28 8 l-28 8 l-8 28 l-8 -28 l-28 -8 z"/><path d="M460 90 l6 -22 l6 22 l22 6 l-22 6 l-6 22 l-6 -22 l-22 -6 z"/><path d="M440 270 l5 -16 l5 16 l16 5 l-16 5 l-5 16 l-5 -16 l-16 -5 z"/><path d="M110 290 l5 -16 l5 16 l16 5 l-16 5 l-5 16 l-5 -16 l-16 -5 z"/></g></svg>
