<svg xmlns="http://www.w3.org/2000/svg" viewBox="0 0 600 375" role="img" aria-labelledby="t"><title id="t">Surface Sealing</title><defs><linearGradient id="bg" x1="0" y1="0" x2="0" y2="1"><stop offset="0" stop-color="#d8e4df"/><stop offset="1" stop-color="#b9cdc4"/></linearGradient></defs><rect width="600" height="375" fill="url(#bg)"/><rect x="80" y="240" width="440" height="80" fill="#0d4a3a"/><rect x="80" y="240" width="440" height="6" fill="#083024"/><g fill="#083024"><path d="M210 220 q-30 -50 0 -90 q30 40 0 90 z"/><path d="M310 215 q-22 -38 0 -70 q22 30 0 70 z"/><path d="M410 220 q-26 -42 0 -78 q26 32 0 78 z"/></g><g fill="#f4a261" opacity=".95"><path d="M210 198 q-10 -16 0 -28 q10 8 0 28 z"/><path d="M310 195 q-8 -12 0 -22 q8 6 0 22 z"/><path d="M410 200 q-9 -14 0 -26 q9 8 0 26 z"/></g></svg>
